<svg width="14" height="18" viewBox="0 0 14 18" fill="none" xmlns="http://www.w3.org/2000/svg">
<path d="M5.97607 6C5.97607 6.26522 5.87072 6.51957 5.68318 6.70711C5.49564 6.89464 5.24129 7 4.97607 7C4.71086 7 4.4565 6.89464 4.26897 6.70711C4.08143 6.51957 3.97607 6.26522 3.97607 6C3.97607 5.73478 4.08143 5.48043 4.26897 5.29289C4.4565 5.10536 4.71086 5 4.97607 5C5.24129 5 5.49564 5.10536 5.68318 5.29289C5.87072 5.48043 5.97607 5.73478 5.97607 6V6ZM8.97107 7C9.23629 7 9.49064 6.89464 9.67818 6.70711C9.86572 6.51957 9.97107 6.26522 9.97107 6C9.97107 5.73478 9.86572 5.48043 9.67818 5.29289C9.49064 5.10536 9.23629 5 8.97107 5C8.70586 5 8.4515 5.10536 8.26397 5.29289C8.07643 5.48043 7.97107 5.73478 7.97107 6C7.97107 6.26522 8.07643 6.51957 8.26397 6.70711C8.4515 6.89464 8.70586 7 8.97107 7V7Z" fill="black"/>
<path fill-rule="evenodd" clip-rule="evenodd" d="M14 18V7C14 6.08075 13.8189 5.1705 13.4672 4.32122C13.1154 3.47194 12.5998 2.70026 11.9497 2.05025C11.2997 1.40024 10.5281 0.884626 9.67878 0.532843C8.82951 0.18106 7.91925 0 7 0C6.08075 0 5.17049 0.18106 4.32122 0.532843C3.47194 0.884626 2.70026 1.40024 2.05025 2.05025C1.40024 2.70026 0.884626 3.47194 0.532843 4.32122C0.18106 5.1705 -1.36979e-08 6.08075 0 7V18H2.828L4.243 16.586L5.657 18H8.343L9.757 16.586L11.172 18H14ZM12 7C12 5.67392 11.4732 4.40215 10.5355 3.46447C9.59785 2.52678 8.32608 2 7 2C5.67392 2 4.40215 2.52678 3.46447 3.46447C2.52678 4.40215 2 5.67392 2 7V16L4.243 13.757L7 16.515L9.757 13.757L12 16V7Z" fill="black"/>
</svg>
