<svg width="24" height="8" viewBox="0 0 24 8" fill="none" xmlns="http://www.w3.org/2000/svg">
<path d="M4.344 5.59795C4.419 5.87895 4.539 5.98795 4.751 5.98795C4.971 5.98795 5.086 5.85595 5.086 5.59795V0.803954H6.465V5.59795C6.465 6.27295 6.377 6.56595 6.035 6.90795C5.788 7.15595 5.332 7.34695 4.757 7.34695C4.293 7.34695 3.848 7.19295 3.565 6.90895C3.316 6.65895 3.179 6.40395 2.966 5.59795L2.12 2.40195C2.046 2.12095 1.926 2.01195 1.714 2.01195C1.494 2.01195 1.378 2.14395 1.378 2.40195V7.19595H0V2.40195C0 1.72695 0.088 1.43395 0.43 1.09195C0.677 0.843954 1.133 0.652954 1.708 0.652954C2.172 0.652954 2.617 0.806954 2.9 1.09095C3.149 1.34095 3.285 1.59595 3.499 2.40195L4.344 5.59795ZM22.575 7.19595L20.984 2.21595C20.9719 2.16877 20.9516 2.12409 20.924 2.08395C20.9016 2.05671 20.873 2.0351 20.8407 2.02086C20.8084 2.00662 20.7733 2.00015 20.738 2.00195C20.7029 2.0003 20.6679 2.00686 20.6358 2.02109C20.6037 2.03533 20.5753 2.05685 20.553 2.08395C20.5254 2.12408 20.5051 2.16877 20.493 2.21595L18.902 7.19595H17.477L19.216 1.75595C19.306 1.47295 19.436 1.23195 19.6 1.07195C19.882 0.796954 20.214 0.652954 20.738 0.652954C21.263 0.652954 21.595 0.796954 21.877 1.07295C22.041 1.23295 22.171 1.47295 22.261 1.75595L24 7.19595H22.575V7.19595ZM15.531 7.19595C16.434 7.19595 16.875 7.00395 17.223 6.65795C17.608 6.27495 17.792 5.85595 17.792 5.23095C17.792 4.67795 17.59 4.16695 17.282 3.86095C16.879 3.46095 16.379 3.33395 15.563 3.33395H14.421C13.985 3.33395 13.811 3.28095 13.673 3.14595C13.579 3.05295 13.534 2.91595 13.534 2.75295C13.534 2.58495 13.574 2.41895 13.69 2.30495C13.793 2.20495 13.933 2.15795 14.201 2.15795H17.502V0.803954H14.453C13.55 0.803954 13.11 0.995954 12.762 1.34195C12.377 1.72495 12.192 2.14395 12.192 2.76895C12.192 3.32195 12.395 3.83295 12.702 4.13895C13.106 4.53895 13.606 4.66595 14.422 4.66595H15.563C16 4.66595 16.173 4.71895 16.311 4.85395C16.406 4.94695 16.451 5.08395 16.451 5.24695C16.451 5.41595 16.41 5.58195 16.294 5.69495C16.192 5.79495 16.052 5.84195 15.784 5.84195H12.379L11.073 1.75595C10.983 1.47295 10.853 1.23195 10.689 1.07195C10.407 0.796954 10.074 0.652954 9.55 0.652954C9.026 0.652954 8.693 0.796954 8.412 1.07295C8.247 1.23295 8.118 1.47295 8.027 1.75595L6.289 7.19595H7.713L9.305 2.21595C9.3171 2.16877 9.33741 2.12409 9.365 2.08395C9.38734 2.05685 9.4157 2.03533 9.44781 2.02109C9.47992 2.00686 9.51491 2.0003 9.55 2.00195C9.632 2.00195 9.692 2.02995 9.736 2.08395C9.76363 2.12407 9.78394 2.16876 9.796 2.21595L11.387 7.19595H15.531V7.19595Z" fill="black"/>
</svg>
