<svg width="28" height="22" viewBox="0 0 28 22" fill="none" xmlns="http://www.w3.org/2000/svg">
<path d="M5.50989 21C5.02358 21.0009 4.53933 20.937 4.06989 20.81C2.66079 20.4082 1.46532 19.4701 0.739953 18.197C0.0145857 16.9238 -0.182892 15.4171 0.189888 14L2.51989 5.16004C2.70135 4.44461 3.02393 3.77266 3.4687 3.18364C3.91347 2.59462 4.47146 2.10041 5.10989 1.73004C5.73152 1.36999 6.41841 1.13687 7.13078 1.04417C7.84314 0.951479 8.56682 1.00106 9.25989 1.19004C9.99663 1.39463 10.6828 1.75005 11.275 2.23376C11.8672 2.71748 12.3524 3.31895 12.6999 4.00004H15.2999C15.6459 3.31786 16.1306 2.71551 16.723 2.23161C17.3154 1.7477 18.0024 1.39293 18.7399 1.19004C19.433 1.00106 20.1566 0.951479 20.869 1.04417C21.5814 1.13687 22.2683 1.36999 22.8899 1.73004C23.5252 2.09946 24.0812 2.59096 24.5257 3.17621C24.9702 3.76146 25.2945 4.42889 25.4799 5.14004L27.8099 14C28.1882 15.4212 27.9923 16.9342 27.2645 18.2122C26.5366 19.4901 25.3353 20.4305 23.9199 20.83C23.2268 21.019 22.5031 21.0686 21.7908 20.9759C21.0784 20.8832 20.3915 20.6501 19.7699 20.29C19.1335 19.9219 18.5768 19.4308 18.1321 18.8454C17.6874 18.2599 17.3637 17.5918 17.1799 16.88L16.9999 16H10.9999L10.7699 16.86C10.586 17.5718 10.2623 18.2399 9.81767 18.8254C9.373 19.4108 8.81626 19.9019 8.17989 20.27C7.36737 20.7387 6.44782 20.9901 5.50989 21V21ZM7.82989 3.00004C7.22643 3.00209 6.63381 3.16058 6.10989 3.46004C5.28874 3.94182 4.69187 4.72926 4.44989 5.65004L2.11989 14.49C1.87607 15.4008 1.99927 16.3708 2.46301 17.1917C2.92674 18.0126 3.69399 18.6188 4.59989 18.88C5.03739 18.9994 5.49422 19.0308 5.94394 18.9724C6.39366 18.9141 6.82734 18.7671 7.21989 18.54C7.62859 18.3041 7.98599 17.9888 8.27107 17.6127C8.55614 17.2366 8.76314 16.8073 8.87989 16.35L9.49989 14H18.4999L19.1099 16.35C19.2287 16.8064 19.4365 17.2348 19.7214 17.6107C20.0063 17.9865 20.3626 18.3023 20.7699 18.54C21.1644 18.7669 21.5997 18.9137 22.051 18.972C22.5023 19.0304 22.9607 18.9991 23.3999 18.88C24.3069 18.6212 25.0751 18.0149 25.5376 17.1929C26.0001 16.3709 26.1195 15.3996 25.8699 14.49L23.5399 5.65004C23.4238 5.19384 23.2181 4.76528 22.9349 4.3893C22.6516 4.01333 22.2964 3.69745 21.8899 3.46004C21.4954 3.23321 21.06 3.08642 20.6088 3.02807C20.1575 2.96973 19.6991 3.00098 19.2599 3.12004C18.7167 3.27487 18.2184 3.55706 17.8062 3.94316C17.394 4.32927 17.0798 4.80816 16.8899 5.34004L16.6499 6.00004H11.3499L11.1099 5.34004C10.9182 4.80745 10.6024 4.32822 10.1884 3.94214C9.77452 3.55605 9.27451 3.27422 8.72989 3.12004C8.43642 3.04091 8.13384 3.00056 7.82989 3.00004V3.00004Z" fill="black"/>
<path d="M8 11C7.60444 11 7.21776 10.8827 6.88886 10.6629C6.55996 10.4432 6.30362 10.1308 6.15224 9.76537C6.00087 9.39992 5.96126 8.99778 6.03843 8.60982C6.1156 8.22186 6.30608 7.86549 6.58579 7.58579C6.86549 7.30608 7.22186 7.1156 7.60982 7.03843C7.99778 6.96126 8.39992 7.00087 8.76537 7.15224C9.13082 7.30362 9.44318 7.55996 9.66294 7.88886C9.8827 8.21776 10 8.60444 10 9C10 9.53043 9.78929 10.0391 9.41421 10.4142C9.03914 10.7893 8.53043 11 8 11Z" fill="black"/>
<path d="M20 8C20.5523 8 21 7.55228 21 7C21 6.44772 20.5523 6 20 6C19.4477 6 19 6.44772 19 7C19 7.55228 19.4477 8 20 8Z" fill="black"/>
<path d="M20 12C20.5523 12 21 11.5523 21 11C21 10.4477 20.5523 10 20 10C19.4477 10 19 10.4477 19 11C19 11.5523 19.4477 12 20 12Z" fill="black"/>
<path d="M18 10C18.5523 10 19 9.55228 19 9C19 8.44772 18.5523 8 18 8C17.4477 8 17 8.44772 17 9C17 9.55228 17.4477 10 18 10Z" fill="black"/>
<path d="M22 10C22.5523 10 23 9.55228 23 9C23 8.44772 22.5523 8 22 8C21.4477 8 21 8.44772 21 9C21 9.55228 21.4477 10 22 10Z" fill="black"/>
</svg>
