<svg width="100" height="100" viewBox="0 0 100 100" fill="none" xmlns="http://www.w3.org/2000/svg">
<rect x="0.5" y="0.5" width="99" height="99" rx="9.5" fill="white" stroke="black"/>
<path d="M50 36C46.3008 36.0446 42.7657 37.534 40.1499 40.1499C37.534 42.7657 36.0446 46.3008 36 50C36.0446 53.6992 37.534 57.2343 40.1499 59.8501C42.7657 62.466 46.3008 63.9554 50 64C53.6992 63.9554 57.2343 62.466 59.8501 59.8501C62.466 57.2343 63.9554 53.6992 64 50C63.9554 46.3008 62.466 42.7657 59.8501 40.1499C57.2343 37.534 53.6992 36.0446 50 36ZM58 51H51V58H49V51H42V49H49V42H51V49H58V51Z" fill="black"/>
</svg>
