<svg width="25" height="23" viewBox="0 0 25 23" fill="none" xmlns="http://www.w3.org/2000/svg">
<path d="M3.96174 13.2485V14.2485V22H9.73561V16.9811V15.9811H10.7356H13.8242H14.8242V16.9811V22H21.0393V14.2485V13.2485H22.0393H23.2361C23.4499 13.2485 23.6456 13.1665 23.7845 13.03L23.786 13.0285C24.0714 12.7493 24.0716 12.3075 23.785 12.028L3.96174 13.2485ZM3.96174 13.2485H2.96174M3.96174 13.2485H2.96174M2.96174 13.2485H1.76491C1.3191 13.2485 1 12.9007 1 12.5288C1 12.3475 1.07435 12.1662 1.21605 12.028L2.96174 13.2485ZM12.5005 1.04078L23.7847 12.0278H1.21631L12.5005 1.04078Z" stroke="black" stroke-width="2"/>
</svg>
